<?xml version="1.0" encoding="utf-8"?>
<!-- Generator: Adobe Illustrator 18.1.1, SVG Export Plug-In . SVG Version: 6.00 Build 0)  -->
<svg version="1.1" id="Layer_1" xmlns="http://www.w3.org/2000/svg" xmlns:xlink="http://www.w3.org/1999/xlink" x="0px" y="0px"
	 width="30px" height="30px" viewBox="0 0 30 30" enable-background="new 0 0 30 30" xml:space="preserve">
<path fill="#FFFFFF" d="M24,16.5H6c-0.6,0-1-0.5-1-1v-1c0-0.6,0.4-1,1-1h18c0.5,0,1,0.4,1,1v1C25,16,24.5,16.5,24,16.5z"/>
<path fill="#FFFFFF" d="M24,10.5H6c-0.6,0-1-0.4-1-1v-1c0-0.6,0.4-1,1-1l18,0c0.5,0,1,0.4,1,1v1C25,10.1,24.5,10.5,24,10.5z"/>
<path fill="#FFFFFF" d="M24,22.5H6c-0.6,0-1-0.5-1-1v-1c0-0.6,0.4-1,1-1h18c0.5,0,1,0.4,1,1v1C25,22,24.5,22.5,24,22.5z"/>
</svg>
